Gait_normal_06_analogdata.mot
version=1
nRows=43
nColumns=19
inDegrees=yes
endheader
time	1_ground_force_vx	1_ground_force_vy	1_ground_force_vz	1_ground_force_px	1_ground_force_py	1_ground_force_pz	1_ground_torque_x	1_ground_torque_y	1_ground_torque_z	2_ground_force_vx	2_ground_force_vy	2_ground_force_vz	2_ground_force_px	2_ground_force_py	2_ground_force_pz	2_ground_torque_x	2_ground_torque_y	2_ground_torque_z
0.215000	10.006665	430.587402	-84.520224	-0.155021	0.000000	-0.445411	0.032492	1.398117	-0.274437	0.000000	0.000000	-0.000000	-0.200000	0.000000	0.302000	0.000000	0.000000	-0.000000
0.216000	8.314034	430.587402	-84.608695	-0.154178	0.000000	-0.444473	0.023162	1.199583	-0.235713	0.000000	0.000000	-0.000000	-0.200000	0.000000	0.302000	0.000000	0.000000	-0.000000
0.217000	6.354146	441.085083	-84.520225	-0.154466	0.000000	-0.442291	0.019600	1.360582	-0.260713	0.000000	0.000000	-0.000000	-0.200000	0.000000	0.302000	0.000000	0.000000	-0.000000
0.218000	5.819631	435.486298	-82.662376	-0.154402	0.000000	-0.444330	0.020381	1.525118	-0.289492	0.000000	0.000000	-0.000000	-0.200000	0.000000	0.302000	0.000000	0.000000	-0.000000
0.219000	3.147057	439.685364	-84.608696	-0.154552	0.000000	-0.442665	0.008643	1.207500	-0.232359	0.000000	0.000000	-0.000000	-0.200000	0.000000	0.302000	0.000000	0.000000	-0.000000
0.220000	0.830826	443.184601	-85.581856	-0.153726	0.000000	-0.443211	0.001675	0.893383	-0.172518	0.000000	0.000000	-0.000000	-0.200000	0.000000	0.302000	0.000000	0.000000	-0.000000
0.221000	-1.752662	439.685364	-85.139511	-0.153158	0.000000	-0.442899	-0.002350	0.589448	-0.114139	0.000000	0.000000	-0.000000	-0.200000	0.000000	0.302000	0.000000	0.000000	-0.000000
0.222000	-3.801636	445.983978	-84.874108	-0.153260	0.000000	-0.441720	-0.009752	1.144032	-0.217718	0.000000	0.000000	-0.000000	-0.200000	0.000000	0.302000	0.000000	0.000000	-0.000000
0.223000	-5.227009	442.134827	-86.024209	-0.153565	0.000000	-0.442954	-0.009632	0.814716	-0.158516	0.000000	0.000000	-0.000000	-0.200000	0.000000	0.302000	0.000000	0.000000	-0.000000
0.224000	-5.316094	444.584290	-84.431764	-0.153059	0.000000	-0.442174	-0.012915	1.080119	-0.205127	0.000000	0.000000	-0.000000	-0.200000	0.000000	0.302000	0.000000	0.000000	-0.000000
0.225000	-9.592213	447.733612	-84.608697	-0.152885	0.000000	-0.440760	-0.011515	0.537484	-0.101569	0.000000	0.000000	-0.000000	-0.200000	0.000000	0.302000	0.000000	0.000000	-0.000000
0.226000	-11.908444	445.983978	-84.254824	-0.152548	0.000000	-0.441820	-0.008486	0.317807	-0.060040	0.000000	0.000000	-0.000000	-0.200000	0.000000	0.302000	0.000000	0.000000	-0.000000
0.227000	-14.402847	452.632507	-84.254824	-0.152377	0.000000	-0.439447	-0.014939	0.469474	-0.087390	0.000000	0.000000	-0.000000	-0.200000	0.000000	0.302000	0.000000	0.000000	-0.000000
0.228000	-16.273648	449.133301	-84.697169	-0.153693	0.000000	-0.441053	-0.018684	0.515661	-0.097243	0.000000	0.000000	-0.000000	-0.200000	0.000000	0.302000	0.000000	0.000000	-0.000000
0.229000	-18.411707	452.282593	-83.989413	-0.151813	0.000000	-0.439556	-0.015388	0.377996	-0.070194	0.000000	0.000000	-0.000000	-0.200000	0.000000	0.302000	0.000000	0.000000	-0.000000
0.230000	-20.104338	454.032196	-84.343295	-0.151696	0.000000	-0.439118	-0.014576	0.329189	-0.061152	0.000000	0.000000	-0.000000	-0.200000	0.000000	0.302000	0.000000	0.000000	-0.000000
0.231000	-22.955084	453.332367	-84.785640	-0.151021	0.000000	-0.438999	-0.001255	0.024788	-0.004636	0.000000	0.000000	-0.000000	-0.200000	0.000000	0.302000	0.000000	0.000000	-0.000000
0.232000	-24.914973	455.081970	-83.281666	-0.150243	0.000000	-0.439628	0.020067	-0.366537	0.067078	0.000000	0.000000	-0.000000	-0.200000	0.000000	0.302000	0.000000	0.000000	-0.000000
0.233000	-25.984002	455.781830	-84.962582	-0.150698	0.000000	-0.439594	-0.016003	0.280714	-0.052328	0.000000	0.000000	-0.000000	-0.200000	0.000000	0.302000	0.000000	0.000000	-0.000000
0.234000	-28.834748	458.581207	-83.989415	-0.150809	0.000000	-0.436327	-0.010370	0.164926	-0.030206	0.000000	0.000000	-0.000000	-0.200000	0.000000	0.302000	0.000000	0.000000	-0.000000
0.235000	-29.369263	462.780273	-83.900944	-0.151004	0.000000	-0.437079	-0.012869	0.202785	-0.036764	0.000000	0.000000	-0.000000	-0.200000	0.000000	0.302000	0.000000	0.000000	-0.000000
0.236000	-32.041838	465.579651	-85.139516	-0.150279	0.000000	-0.436917	0.000043	-0.000631	0.000115	0.000000	0.000000	-0.000000	-0.200000	0.000000	0.302000	0.000000	0.000000	-0.000000
0.237000	-32.754523	465.929565	-84.874112	-0.149463	0.000000	-0.437372	0.015831	-0.225191	0.041021	0.000000	0.000000	-0.000000	-0.200000	0.000000	0.302000	0.000000	0.000000	-0.000000
0.238000	-33.110865	468.379028	-84.962583	-0.147466	0.000000	-0.437663	0.002002	-0.028315	0.005136	0.000000	0.000000	-0.000000	-0.200000	0.000000	0.302000	0.000000	0.000000	-0.000000
0.239000	-36.139784	470.828491	-85.227987	-0.149461	0.000000	-0.435706	-0.010472	0.136428	-0.024696	0.000000	0.000000	-0.000000	-0.200000	0.000000	0.302000	0.000000	0.000000	-0.000000
0.240000	-36.317953	479.576538	-85.758802	-0.149517	0.000000	-0.434423	-0.031578	0.416988	-0.074567	0.000000	0.000000	-0.000000	-0.200000	0.000000	0.302000	0.000000	0.000000	-0.000000
0.241000	-37.297899	478.526794	-86.466558	-0.148854	0.000000	-0.433734	-0.019899	0.255306	-0.046132	0.000000	0.000000	-0.000000	-0.200000	0.000000	0.302000	0.000000	0.000000	-0.000000
0.242000	-38.010584	478.176849	-86.289618	-0.148315	0.000000	-0.435416	0.002767	-0.034813	0.006282	0.000000	0.000000	-0.000000	-0.200000	0.000000	0.302000	0.000000	0.000000	-0.000000
0.243000	-37.832415	483.425690	-86.201147	-0.147708	0.000000	-0.435257	0.011415	-0.145862	0.026009	0.000000	0.000000	-0.000000	-0.200000	0.000000	0.302000	0.000000	0.000000	-0.000000
0.244000	-38.990530	482.026001	-85.935744	-0.148192	0.000000	-0.437609	-0.014907	0.184288	-0.032855	0.000000	0.000000	-0.000000	-0.200000	0.000000	0.302000	0.000000	0.000000	-0.000000
0.245000	-38.990530	497.072662	-86.555029	-0.149421	0.000000	-0.431129	-0.057688	0.735441	-0.128062	0.000000	0.000000	-0.000000	-0.200000	0.000000	0.302000	0.000000	0.000000	-0.000000
0.246000	-38.901442	489.724304	-87.351248	-0.148423	0.000000	-0.433725	-0.044166	0.556005	-0.099174	0.000000	0.000000	-0.000000	-0.200000	0.000000	0.302000	0.000000	0.000000	-0.000000
0.247000	-39.525045	496.372833	-87.528189	-0.148484	0.000000	-0.432693	-0.053964	0.677698	-0.119502	0.000000	0.000000	-0.000000	-0.200000	0.000000	0.302000	0.000000	0.000000	-0.000000
0.248000	-39.703215	494.273285	-86.997374	-0.147427	0.000000	-0.434409	-0.026870	0.334509	-0.058877	0.000000	0.000000	-0.000000	-0.200000	0.000000	0.302000	0.000000	0.000000	-0.000000
0.249000	-39.079615	496.372833	-86.643492	-0.145419	0.000000	-0.434774	-0.031345	0.398129	-0.069495	0.000000	0.000000	-0.000000	-0.200000	0.000000	0.302000	0.000000	0.000000	-0.000000
0.250000	-38.545100	495.672974	-85.758803	-0.146665	0.000000	-0.434199	-0.064879	0.834315	-0.144349	0.000000	0.000000	-0.000000	-0.200000	0.000000	0.302000	0.000000	0.000000	-0.000000
0.251000	-38.901441	509.669891	-88.855223	-0.147709	0.000000	-0.431348	-0.077223	1.011740	-0.176386	0.000000	0.000000	-0.000000	-0.200000	0.000000	0.302000	0.000000	0.000000	-0.000000
0.252000	-40.059557	508.970032	-87.262778	-0.147327	0.000000	-0.432054	-0.069367	0.881337	-0.151105	0.000000	0.000000	-0.000000	-0.200000	0.000000	0.302000	0.000000	0.000000	-0.000000
0.253000	-40.415903	513.169128	-87.793593	-0.146572	0.000000	-0.431744	-0.097515	1.238166	-0.211827	0.000000	0.000000	-0.000000	-0.200000	0.000000	0.302000	0.000000	0.000000	-0.000000
0.254000	-40.326815	513.519043	-86.908904	-0.145165	0.000000	-0.433923	-0.069227	0.881532	-0.149192	0.000000	0.000000	-0.000000	-0.200000	0.000000	0.302000	0.000000	0.000000	-0.000000
0.255000	-40.772245	512.469238	-87.262778	-0.145850	0.000000	-0.434763	-0.083709	1.052141	-0.179158	0.000000	0.000000	-0.000000	-0.200000	0.000000	0.302000	0.000000	0.000000	-0.000000
0.256000	-40.861330	522.267090	-86.201148	-0.146478	0.000000	-0.431233	-0.111624	1.426722	-0.235483	0.000000	0.000000	-0.000000	-0.200000	0.000000	0.302000	0.000000	0.000000	-0.000000
0.257000	-43.533907	526.816101	-88.589820	-0.146523	0.000000	-0.430911	-0.079846	0.966234	-0.162483	0.000000	0.000000	-0.000000	-0.200000	0.000000	0.302000	0.000000	0.000000	-0.000000
